<mxfile host="app.diagrams.net" modified="2020-12-30T10:10:35.565Z" agent="5.0 (Windows NT 10.0; Win64; x64) AppleWebKit/537.36 (KHTML, like Gecko) Chrome/87.0.4280.88 Safari/537.36" etag="VnJNzgQZVF4W7uOUfI2Y" version="14.1.3" type="github">
  <diagram id="kgpKYQtTHZ0yAKxKKP6v" name="Page-1">
    <mxGraphModel dx="860" dy="505" grid="1" gridSize="10" guides="1" tooltips="1" connect="1" arrows="1" fold="1" page="1" pageScale="1" pageWidth="827" pageHeight="583" math="0" shadow="0">
      <root>
        <mxCell id="0" />
        <mxCell id="1" parent="0" />
        <mxCell id="b3XUP-Xao2zp08QGgYTl-19" value="Login" style="shape=note;whiteSpace=wrap;html=1;size=14;verticalAlign=top;align=left;spacingTop=-6;rounded=0;shadow=0;comic=0;labelBackgroundColor=none;strokeWidth=1;fontFamily=Verdana;fontSize=12" parent="1" vertex="1">
          <mxGeometry width="100" height="35" as="geometry" />
        </mxCell>
        <mxCell id="b3XUP-Xao2zp08QGgYTl-28" value="کاربر" style="shape=umlActor;verticalLabelPosition=bottom;verticalAlign=top;html=1;outlineConnect=0;" parent="1" vertex="1">
          <mxGeometry x="24" y="220" width="30" height="60" as="geometry" />
        </mxCell>
        <mxCell id="b3XUP-Xao2zp08QGgYTl-29" value="سیستم" style="rounded=0;whiteSpace=wrap;html=1;" parent="1" vertex="1">
          <mxGeometry x="314" y="210" width="120" height="60" as="geometry" />
        </mxCell>
        <mxCell id="b3XUP-Xao2zp08QGgYTl-30" value="کاربر: یک کاربر" style="rounded=1;whiteSpace=wrap;html=1;" parent="1" vertex="1">
          <mxGeometry x="684" y="210" width="120" height="60" as="geometry" />
        </mxCell>
        <mxCell id="8xnBQDxNFRyCnq-dXIb2-1" value="&lt;span style=&quot;color: rgba(0 , 0 , 0 , 0) ; font-family: monospace ; font-size: 0px ; background-color: rgb(248 , 249 , 250)&quot;&gt;%3CmxGraphModel%3E%3Croot%3E%3CmxCell%20id%3D%220%22%2F%3E%3CmxCell%20id%3D%221%22%20parent%3D%220%22%2F%3E%3CmxCell%20id%3D%222%22%20value%3D%22%22%20style%3D%22endArrow%3Dnone%3Bhtml%3D1%3BexitX%3D1%3BexitY%3D0.5%3BexitDx%3D0%3BexitDy%3D0%3BentryX%3D0%3BentryY%3D0.5%3BentryDx%3D0%3BentryDy%3D0%3B%22%20edge%3D%221%22%20parent%3D%221%22%3E%3CmxGeometry%20width%3D%2250%22%20height%3D%2250%22%20relative%3D%221%22%20as%3D%22geometry%22%3E%3CmxPoint%20x%3D%22434.0000000000002%22%20y%3D%22240%22%20as%3D%22sourcePoint%22%2F%3E%3CmxPoint%20x%3D%22683.9999999999998%22%20y%3D%22240%22%20as%3D%22targetPoint%22%2F%3E%3C%2FmxGeometry%3E%3C%2FmxCell%3E%3C%2Froot%3E%3C%2FmxGraphModel%3E&lt;/span&gt;" style="endArrow=none;html=1;exitX=1;exitY=0.5;exitDx=0;exitDy=0;entryX=0;entryY=0.5;entryDx=0;entryDy=0;" edge="1" parent="1" source="b3XUP-Xao2zp08QGgYTl-29" target="b3XUP-Xao2zp08QGgYTl-30">
          <mxGeometry width="50" height="50" relative="1" as="geometry">
            <mxPoint x="444" y="280" as="sourcePoint" />
            <mxPoint x="634" y="240" as="targetPoint" />
          </mxGeometry>
        </mxCell>
        <mxCell id="8xnBQDxNFRyCnq-dXIb2-2" value="" style="endArrow=classicThin;html=1;strokeWidth=1;endSize=20;entryX=0;entryY=0.5;entryDx=0;entryDy=0;" edge="1" parent="1">
          <mxGeometry width="100" relative="1" as="geometry">
            <mxPoint x="634" y="219.41" as="sourcePoint" />
            <mxPoint x="664" y="219.41" as="targetPoint" />
            <Array as="points" />
          </mxGeometry>
        </mxCell>
        <mxCell id="8xnBQDxNFRyCnq-dXIb2-3" value="&lt;span style=&quot;font-family: &amp;#34;verdana&amp;#34;&quot;&gt;2: نام کاربری ، رمزعبور) ورود به سیستم)&lt;/span&gt;" style="text;html=1;align=center;verticalAlign=middle;resizable=0;points=[];autosize=1;" vertex="1" parent="1">
          <mxGeometry x="434" y="210" width="200" height="20" as="geometry" />
        </mxCell>
        <mxCell id="8xnBQDxNFRyCnq-dXIb2-10" value="" style="endArrow=classicThin;html=1;strokeWidth=1;endSize=20;entryX=0;entryY=0.5;entryDx=0;entryDy=0;" edge="1" parent="1">
          <mxGeometry width="100" relative="1" as="geometry">
            <mxPoint x="269" y="220" as="sourcePoint" />
            <mxPoint x="299" y="220" as="targetPoint" />
            <Array as="points" />
          </mxGeometry>
        </mxCell>
        <mxCell id="8xnBQDxNFRyCnq-dXIb2-11" value="&lt;span style=&quot;font-family: &amp;#34;verdana&amp;#34; ; text-align: center&quot;&gt;1: نام کاربری ، رمزعبور) واردکردن اطلاعات)&lt;/span&gt;" style="text;whiteSpace=wrap;html=1;" vertex="1" parent="1">
          <mxGeometry x="58" y="205" width="216" height="30" as="geometry" />
        </mxCell>
        <mxCell id="8xnBQDxNFRyCnq-dXIb2-13" value="&lt;span style=&quot;color: rgba(0 , 0 , 0 , 0) ; font-family: monospace ; font-size: 0px ; background-color: rgb(248 , 249 , 250)&quot;&gt;%3CmxGraphModel%3E%3Croot%3E%3CmxCell%20id%3D%220%22%2F%3E%3CmxCell%20id%3D%221%22%20parent%3D%220%22%2F%3E%3CmxCell%20id%3D%222%22%20value%3D%22%22%20style%3D%22endArrow%3Dnone%3Bhtml%3D1%3BexitX%3D1%3BexitY%3D0.5%3BexitDx%3D0%3BexitDy%3D0%3BentryX%3D0%3BentryY%3D0.5%3BentryDx%3D0%3BentryDy%3D0%3B%22%20edge%3D%221%22%20parent%3D%221%22%3E%3CmxGeometry%20width%3D%2250%22%20height%3D%2250%22%20relative%3D%221%22%20as%3D%22geometry%22%3E%3CmxPoint%20x%3D%22434.0000000000002%22%20y%3D%22240%22%20as%3D%22sourcePoint%22%2F%3E%3CmxPoint%20x%3D%22683.9999999999998%22%20y%3D%22240%22%20as%3D%22targetPoint%22%2F%3E%3C%2FmxGeometry%3E%3C%2FmxCell%3E%3C%2Froot%3E%3C%2FmxGraphModel%3E&lt;/span&gt;" style="endArrow=none;html=1;exitX=1;exitY=0.3333333333333333;exitDx=0;exitDy=0;entryX=0;entryY=0.5;entryDx=0;entryDy=0;exitPerimeter=0;" edge="1" parent="1" source="b3XUP-Xao2zp08QGgYTl-28" target="b3XUP-Xao2zp08QGgYTl-29">
          <mxGeometry width="50" height="50" relative="1" as="geometry">
            <mxPoint x="444.0000000000002" y="250" as="sourcePoint" />
            <mxPoint x="693.9999999999998" y="250" as="targetPoint" />
          </mxGeometry>
        </mxCell>
      </root>
    </mxGraphModel>
  </diagram>
</mxfile>
